<svg width="24" height="24" viewBox="0 0 24 24" fill="none" xmlns="http://www.w3.org/2000/svg">
    <path d="M11.5795 1.47991C14.8476 1.02061 16.4817 0.79065 17.8194 1.25125C18.996 1.65642 20.0146 2.42394 20.7284 3.44337C21.5397 4.60227 21.7692 6.23656 22.2285 9.50463L22.5202 11.5798C22.9794 14.8479 23.2093 16.4821 22.7488 17.8198C22.3436 18.9964 21.5759 20.0142 20.5566 20.728C19.3977 21.5395 17.7637 21.7697 14.4956 22.229L12.4204 22.5206C9.15225 22.9799 7.51815 23.2091 6.18048 22.7485C5.00389 22.3433 3.9854 21.5766 3.27163 20.5571C2.46019 19.3983 2.2308 17.764 1.77151 14.496L1.47986 12.4207C1.02057 9.15261 0.790705 7.51842 1.2512 6.18076C1.65636 5.00407 2.42387 3.98553 3.44327 3.27173C4.60215 2.46029 6.23632 2.23088 9.50437 1.77157L11.5795 1.47991ZM18.7032 9.87436C18.3805 9.91976 18.1558 10.2179 18.2011 10.5408L18.932 15.7415L12.5288 10.9169C12.2684 10.7208 11.8984 10.7728 11.7022 11.0331C11.5063 11.2933 11.5582 11.6627 11.8182 11.8588L18.2217 16.6842L13.0201 17.4153C12.6975 17.4607 12.4728 17.7598 12.5181 18.0824C12.5636 18.4048 12.862 18.6297 13.1845 18.5846L19.7968 17.6552C19.9516 17.6335 20.0912 17.5507 20.1855 17.4258C20.2796 17.3009 20.3205 17.1437 20.2988 16.9889L19.3696 10.3765C19.3242 10.0537 19.026 9.82905 18.7032 9.87436Z" fill="#37322E"/>
</svg>
