<svg width="500" height="500" viewBox="0 0 500 500" fill="none" xmlns="http://www.w3.org/2000/svg">
<path d="M449.887 404.946C446.384 430.985 428.847 453.5 404.305 463.509C392.279 468.502 379.249 470.019 366.219 468.502C353.702 467.009 341.163 462.996 328.156 455.506C310.129 445.474 292.078 429.981 271.038 406.953C304.104 366.402 324.139 329.375 331.659 296.337C335.161 280.821 335.675 266.799 334.157 253.78C332.149 241.274 327.642 229.748 320.637 219.739C305.108 197.224 279.048 184.204 249.999 184.204C220.949 184.204 194.889 197.713 179.36 219.739C172.355 229.748 167.848 241.274 165.84 253.78C163.832 266.799 164.345 281.311 168.339 296.337C175.858 329.375 196.384 366.916 228.959 407.443C208.41 430.471 189.892 445.987 171.841 455.996C158.811 463.509 146.295 467.522 133.778 469.015C120.865 470.462 107.812 468.735 95.7155 464.022C71.1731 454.013 53.6362 431.475 50.1334 405.46C48.639 392.954 49.6431 380.448 54.6403 366.426C56.1348 361.409 58.6567 356.416 61.1553 350.42C64.658 342.417 68.6745 333.901 72.6676 325.385L73.1813 324.382C107.741 249.79 144.824 173.705 183.4 99.6267L184.895 96.6169C188.911 89.1274 192.904 81.1013 196.921 73.5884C200.937 65.5856 205.444 58.0728 210.955 51.5632C221.486 39.5474 235.497 33.0378 251.026 33.0378C266.555 33.0378 280.589 39.5474 291.097 51.5632C296.608 58.0728 301.115 65.5856 305.131 73.5884C309.148 81.1013 313.141 89.1041 317.157 96.5936L318.675 99.6034C356.738 174.172 393.82 250.257 428.38 324.848V325.338C432.397 333.341 435.899 342.37 439.893 350.373C442.391 356.393 444.913 361.386 446.408 366.379C450.401 379.421 451.895 391.927 449.887 404.946ZM249.999 381.405C222.958 347.363 205.421 315.329 199.396 288.311C196.897 276.785 196.384 266.776 197.901 257.769C198.906 249.767 201.918 242.744 205.911 236.748C215.438 223.238 231.457 214.722 249.999 214.722C268.54 214.722 285.072 222.748 294.086 236.748C298.103 242.767 301.092 249.767 302.096 257.769C303.59 266.776 303.1 277.298 300.601 288.311C294.6 314.839 277.063 346.874 249.999 381.405ZM475.947 355.39C473.449 349.393 470.927 342.884 468.428 337.378C464.412 328.371 460.418 319.855 456.892 311.853L456.402 311.363C421.842 236.281 384.76 160.196 345.693 85.1143L344.198 82.1045C340.182 74.5917 336.189 66.5889 332.172 58.5861C327.152 49.58 322.155 40.0607 314.145 31.0546C298.103 11.0126 275.055 0 250.512 0C225.456 0 202.922 11.0126 186.366 30.028C178.847 39.0341 173.336 48.5534 168.339 57.5595C164.322 65.5623 160.329 73.5651 156.313 81.0779L154.818 84.0644C116.241 159.146 78.6689 235.231 44.1088 310.313L43.6184 311.316C40.1157 319.319 36.0992 327.835 32.0828 336.841C29.3974 342.767 26.8987 348.787 24.5636 354.853C18.0485 373.378 16.0403 390.901 18.5389 408.913C24.0499 446.454 49.106 477.998 83.6661 491.997C96.6962 497.503 110.217 500 124.251 500C128.267 500 133.265 499.51 137.281 498.997C153.814 496.99 170.837 491.507 187.37 481.988C207.919 470.485 227.441 453.966 249.485 429.935C271.529 453.966 291.564 470.485 311.6 481.988C328.133 491.507 345.156 496.99 361.689 498.997C365.705 499.51 370.702 500 374.719 500C388.753 500 402.764 497.503 415.303 491.997C450.377 477.975 474.92 445.94 480.431 408.913C484.447 391.414 482.439 373.915 475.947 355.39Z" fill="#E0565B"/>
</svg>
