<svg width="500" height="500" viewBox="0 0 500 500" fill="none" xmlns="http://www.w3.org/2000/svg">
<path d="M225.098 68.4175L60.1976 136.65C51.0301 140.447 51.1226 153.472 60.3526 157.13L225.94 222.795C240.489 228.564 256.691 228.564 271.24 222.795L436.83 157.13C446.055 153.472 446.153 140.447 436.98 136.652L272.085 68.4175C257.041 62.1929 240.142 62.1929 225.098 68.4175Z" fill="#FCB400"/>
<path d="M263.28 258.65V422.693C263.28 430.493 271.148 435.838 278.4 432.963L462.915 361.343C464.973 360.526 466.738 359.111 467.981 357.28C469.225 355.449 469.89 353.286 469.89 351.073V187.033C469.89 179.23 462.023 173.888 454.77 176.763L270.255 248.383C268.198 249.199 266.433 250.614 265.189 252.445C263.945 254.277 263.28 256.437 263.28 258.65Z" fill="#18BFFF"/>
<path d="M220.195 267.115L165.435 293.555L159.875 296.243L44.2801 351.63C36.9551 355.165 27.6001 349.825 27.6001 341.685V187.72C27.6001 184.775 29.1101 182.233 31.1351 180.32C31.9653 179.492 32.9079 178.785 33.9351 178.22C36.6951 176.563 40.6351 176.12 43.9851 177.445L219.275 246.9C228.185 250.435 228.885 262.918 220.195 267.115Z" fill="#F82B60"/>
<path d="M220.195 267.115L165.435 293.555L31.135 180.318C31.9654 179.491 32.908 178.785 33.935 178.22C36.695 176.563 40.635 176.12 43.985 177.445L219.275 246.9C228.185 250.435 228.885 262.918 220.195 267.115Z" fill="black" fill-opacity="0.25"/>
</svg>
