<svg width="500" height="500" viewBox="0 0 500 500" fill="none" xmlns="http://www.w3.org/2000/svg">
<path d="M440.922 170.45C438.016 172.7 386.716 201.55 386.716 265.7C386.716 339.9 451.994 366.15 453.947 366.8C453.647 368.4 443.577 402.75 419.53 437.75C398.089 468.55 375.695 499.3 341.629 499.3C307.562 499.3 298.795 479.55 259.468 479.55C221.144 479.55 207.517 499.95 176.357 499.95C145.196 499.95 123.453 471.45 98.4548 436.45C69.4984 395.35 46.1028 331.5 46.1028 270.9C46.1028 173.7 109.426 122.15 171.748 122.15C204.862 122.15 232.466 143.85 253.256 143.85C273.045 143.85 303.905 120.85 341.578 120.85C355.856 120.85 407.156 122.15 440.922 170.45ZM323.694 79.7C339.274 61.25 350.295 35.65 350.295 10.05C350.295 6.5 349.995 2.9 349.344 0C323.994 0.95 293.835 16.85 275.65 37.9C261.372 54.1 248.046 79.7 248.046 105.65C248.046 109.55 248.698 113.45 248.998 114.7C250.601 115 253.206 115.35 255.811 115.35C278.556 115.35 307.161 100.15 323.694 79.7Z" fill="black"/>
</svg>
