<svg width="500" height="500" viewBox="0 0 500 500" fill="none" xmlns="http://www.w3.org/2000/svg">
<g clip-path="url(#clip0_1260_57)">
<path d="M113.125 454.656L4.35938 266.266C-1.45312 256.203 -1.45312 243.797 4.35938 233.734L113.125 45.3516C118.93 35.2969 129.648 29.1016 141.25 29.0859H358.883C370.445 29.1406 381.109 35.3359 386.891 45.3516L495.641 233.734C501.453 243.797 501.453 256.203 495.641 266.266L386.875 454.656C381.07 464.711 370.352 470.906 358.75 470.922H141.172C129.586 470.883 118.906 464.687 113.102 454.656H113.125Z" fill="#4386FA"/>
<path opacity="0.1" d="M317.945 189.336C317.945 189.336 348.18 261.859 306.961 302.969C265.742 344.078 190.688 317.766 190.688 317.766L343.359 470.859H358.859C370.469 470.844 381.187 464.641 386.984 454.594L458.984 329.922L317.945 189.336Z" fill="black"/>
<path d="M353.648 337.734L320.313 304.32C319.95 303.948 319.534 303.632 319.078 303.383C333.258 285.118 339.941 262.135 337.765 239.114C335.589 216.094 324.718 194.77 307.367 179.485C290.016 164.201 267.491 156.107 244.38 156.852C221.27 157.597 199.312 167.126 182.982 183.496C166.652 199.866 157.178 221.847 156.489 244.959C155.801 268.072 163.95 290.577 179.277 307.891C194.604 325.204 215.955 336.022 238.981 338.141C262.006 340.261 284.973 333.521 303.203 319.297C303.441 319.727 303.738 320.121 304.086 320.469L337.5 353.883C338.481 354.863 339.812 355.414 341.199 355.414C342.586 355.414 343.917 354.863 344.898 353.883L353.648 345.133C354.629 344.151 355.18 342.821 355.18 341.434C355.18 340.046 354.629 338.716 353.648 337.734ZM247.188 316.125C233.667 316.127 220.449 312.118 209.206 304.608C197.963 297.097 189.2 286.421 184.025 273.929C178.85 261.438 177.496 247.692 180.133 234.431C182.771 221.17 189.282 208.989 198.842 199.428C208.403 189.868 220.584 183.357 233.845 180.719C247.107 178.082 260.852 179.436 273.343 184.611C285.835 189.786 296.511 198.549 304.022 209.792C311.533 221.035 315.541 234.253 315.539 247.773C315.537 265.901 308.335 283.285 295.517 296.103C282.699 308.921 265.315 316.123 247.188 316.125ZM203.492 244.125V272.375C207.844 280.055 214.141 286.461 221.758 290.93V243.953L203.492 244.125ZM237.672 220.703V297.047C243.71 298.16 249.9 298.16 255.937 297.047V220.703H237.672ZM290.516 272.312V255.578H272.266V290.734C279.872 286.277 286.172 279.897 290.531 272.234L290.516 272.312Z" fill="white"/>
</g>
<defs>
<clipPath id="clip0_1260_57">
<rect width="500" height="500" fill="white"/>
</clipPath>
</defs>
</svg>
