<svg width="500" height="500" viewBox="0 0 500 500" fill="none" xmlns="http://www.w3.org/2000/svg">
<g clip-path="url(#clip0_1260_70)">
<path d="M462.5 161.296L447.061 119.601L457.686 95.6811C459.014 92.5249 458.35 89.0365 456.025 86.5448L426.973 57.1429C414.189 44.3522 395.264 39.8671 378.164 45.8472L370.029 48.6711L325.537 0.498339L250.332 0H249.834L174.131 0.664452L129.805 49.1694L121.836 46.3455C104.57 40.1993 85.4785 44.6844 72.6953 57.8073L43.1445 87.7076C41.1523 89.701 40.6543 92.5249 41.6504 95.0166L52.7734 119.934L37.5 161.628L47.4609 199.336L92.6172 370.93C97.7637 390.698 109.717 407.973 126.484 419.934C126.484 419.934 181.27 458.638 235.225 493.688C240.039 496.844 245.02 499.003 250.332 499.003C255.645 499.003 260.625 496.844 265.439 493.688C326.201 453.821 374.18 419.767 374.18 419.767C390.781 407.807 402.734 390.532 407.881 370.764L452.705 199.169L462.5 161.296Z" fill="#F15A22"/>
<path style="mix-blend-mode:lighten" opacity="0.15" d="M94.7754 378.239L37.5 165.282L54.2676 123.588L42.6465 92.691L70.3711 64.4518C79.502 56.3122 97.4316 53.4883 105.732 58.3056L149.062 83.2225L205.508 96.3455L249.502 78.073L253.154 456.312C252.49 510.797 255.977 504.983 215.967 479.236L117.188 412.957C106.562 402.824 98.4277 391.362 94.7754 378.239Z" fill="url(#paint0_linear_1260_70)"/>
<path style="mix-blend-mode:darken" opacity="0.4" d="M373.184 419.013L289.18 476.488C265.771 489.279 254.482 501.903 252.656 495.757C251.162 490.94 252.324 476.82 251.826 454.893L250.83 84.9598C250.996 81.3053 253.486 75.1591 257.803 75.8235L300.635 88.7804L362.393 79.1458L403.232 49.0794C407.549 45.7571 413.857 46.0893 417.842 49.9099L454.365 84.7937C457.686 88.282 457.852 95.0927 455.859 99.4116L445.732 118.182L462.5 161.538L404.727 376.488C395.762 403.232 383.145 410.209 373.184 419.013Z" fill="url(#paint1_linear_1260_70)"/>
<path d="M259.961 306.979C257.969 306.148 255.811 305.484 255.146 305.484H252.49H249.834C249.17 305.484 247.012 306.148 245.02 306.979L223.437 315.949C221.445 316.78 218.125 318.275 216.133 319.271L183.594 336.215C181.602 337.212 181.436 339.039 183.262 340.368L211.982 360.634C213.809 361.962 216.631 364.122 218.291 365.617L231.074 376.58C232.734 378.075 235.391 380.401 237.051 381.896L249.336 392.859C250.996 394.354 253.652 394.354 255.312 392.859L267.93 381.896C269.59 380.401 272.246 378.075 273.906 376.58L286.689 365.451C288.35 363.956 291.172 361.796 292.998 360.467L321.719 340.036C323.545 338.707 323.379 336.879 321.387 335.883L288.848 319.271C286.855 318.275 283.535 316.78 281.543 315.949L259.961 306.979Z" fill="white"/>
<path d="M415.706 168.7C416.37 166.54 416.37 165.71 416.37 165.71C416.37 163.55 416.204 159.896 415.872 157.736L414.212 152.919C413.215 150.926 411.555 147.769 410.227 145.942L391.467 118.201C390.305 116.374 388.147 113.55 386.653 111.723L362.415 81.3242C361.087 79.663 359.758 78.168 359.592 78.3341H359.26C359.26 78.3341 357.434 78.6664 355.276 78.9986L318.254 86.3076C316.096 86.8059 312.61 87.4704 310.452 87.8026L309.788 87.9687C307.63 88.3009 304.143 88.1348 301.985 87.4704L270.94 77.5036C268.782 76.8391 265.296 75.8424 263.303 75.3441C263.303 75.3441 256.995 73.8491 251.848 74.0152C246.702 74.0152 240.393 75.3441 240.393 75.3441C238.235 75.8424 234.749 76.8391 232.756 77.5036L201.712 87.4704C199.553 88.1348 196.067 88.3009 193.909 87.9687L193.245 87.8026C191.087 87.4704 187.6 86.6398 185.442 86.3076L148.088 79.3308C145.93 78.8325 144.104 78.6664 144.104 78.6664H143.772C143.606 78.6664 142.278 79.9953 140.95 81.6564L116.712 112.055C115.383 113.716 113.225 116.706 111.897 118.533L93.1373 146.274C91.9752 148.102 90.149 151.258 89.1529 153.251L87.4928 158.068C87.1607 160.228 86.8287 163.882 86.9947 166.042C86.9947 166.042 86.9947 166.706 87.6588 169.032C88.8209 173.019 91.6432 176.673 91.6432 176.673C92.9713 178.334 95.4615 181.158 96.9557 182.653L151.907 241.125C153.401 242.786 153.899 245.776 153.069 247.769L141.614 274.846C140.784 276.839 140.618 280.161 141.448 282.321L144.602 290.793C147.258 297.935 151.741 304.248 157.717 309.065L168.84 318.035C170.501 319.364 173.489 319.862 175.481 318.866L210.676 302.088C212.669 301.092 215.657 299.098 217.317 297.603L242.551 274.846C246.204 271.524 246.37 265.876 243.049 262.221L190.09 226.507C188.264 225.344 187.6 222.686 188.596 220.693L211.838 176.839C212.835 174.846 213.001 171.69 212.171 169.696L209.348 163.218C208.518 161.225 206.028 158.899 204.036 158.068L135.803 132.487C133.811 131.656 133.811 130.826 135.969 130.66L179.963 126.507C182.122 126.341 185.608 126.673 187.766 127.171L226.946 138.135C229.104 138.799 230.432 140.959 230.1 143.118L216.487 217.703C216.155 219.862 216.155 222.852 216.653 224.514C217.151 226.175 219.309 227.67 221.467 228.168L248.694 233.982C250.852 234.48 254.338 234.48 256.497 233.982L281.897 228.168C284.055 227.67 286.213 226.009 286.712 224.514C287.21 223.019 287.376 219.862 286.878 217.703L273.43 143.118C273.098 140.959 274.426 138.633 276.585 138.135L315.764 127.171C317.922 126.507 321.409 126.341 323.567 126.507L367.561 130.66C369.719 130.826 369.885 131.656 367.727 132.487L299.495 158.401C297.503 159.231 295.012 161.391 294.182 163.55L291.36 170.028C290.53 172.022 290.53 175.344 291.692 177.171L315.1 221.025C316.096 223.019 315.432 225.51 313.606 226.839L260.647 262.72C257.161 266.208 257.493 272.022 261.145 275.344L286.379 298.102C288.04 299.597 291.028 301.59 293.02 302.421L328.381 319.198C330.374 320.195 333.362 319.696 335.022 318.367L346.145 309.231C352.122 304.414 356.604 298.102 359.094 290.959L362.249 282.487C363.079 280.494 362.913 277.005 362.083 275.012L350.628 247.935C349.797 245.942 350.295 242.952 351.79 241.291L406.741 182.819C408.235 181.158 410.559 178.5 412.053 176.839C411.721 176.341 414.71 172.686 415.706 168.7Z" fill="white"/>
</g>
<defs>
<linearGradient id="paint0_linear_1260_70" x1="37.5" y1="22176.9" x2="21623.8" y2="22176.9" gradientUnits="userSpaceOnUse">
<stop stop-color="white"/>
<stop offset="0.1413" stop-color="white" stop-opacity="0.9576"/>
<stop offset="1" stop-color="white" stop-opacity="0.7"/>
</linearGradient>
<linearGradient id="paint1_linear_1260_70" x1="242.562" y1="22567" x2="21417.8" y2="22567" gradientUnits="userSpaceOnUse">
<stop stop-color="#F1F1F2"/>
<stop offset="0.0919144" stop-color="#E4E5E6"/>
<stop offset="0.2357" stop-color="#D9DADB"/>
<stop offset="0.438" stop-color="#D2D4D5"/>
<stop offset="1" stop-color="#D0D2D3"/>
</linearGradient>
<clipPath id="clip0_1260_70">
<rect width="425" height="500" fill="white" transform="translate(37.5)"/>
</clipPath>
</defs>
</svg>
