<svg width="500" height="500" viewBox="0 0 500 500" fill="none" xmlns="http://www.w3.org/2000/svg">
<g clip-path="url(#clip0_1260_90)">
<path d="M322.034 388.305C401.6 388.305 466.102 326.384 466.102 250C466.102 173.616 401.6 111.695 322.034 111.695C242.468 111.695 177.967 173.616 177.967 250C177.967 326.384 242.468 388.305 322.034 388.305Z" fill="#FFDE2D"/>
<path d="M177.966 388.305C257.532 388.305 322.033 326.384 322.033 250C322.033 173.616 257.532 111.695 177.966 111.695C98.3996 111.695 33.8983 173.616 33.8983 250C33.8983 326.384 98.3996 388.305 177.966 388.305Z" fill="#327EFF"/>
<path d="M322.034 250C322.034 326.384 257.532 388.304 177.966 388.304V250H322.034ZM177.966 250C177.966 173.617 242.467 111.695 322.034 111.695V250H177.966Z" fill="#FF6446"/>
</g>
<defs>
<clipPath id="clip0_1260_90">
<rect width="500" height="500" fill="white"/>
</clipPath>
</defs>
</svg>
