<svg width="500" height="500" viewBox="0 0 500 500" fill="none" xmlns="http://www.w3.org/2000/svg">
<path d="M153.592 282.968C153.592 346.117 127.963 398.84 86.2432 447.394H183.392V494.457H34.3911V449.777C79.9852 398.245 97.5672 356.245 97.5672 282.968H153.592Z" fill="black"/>
<path d="M346.409 282.968C346.409 346.117 372.037 398.84 413.757 447.394H316.609V494.457H465.609V449.777C420.015 398.245 402.433 356.245 402.433 282.968H346.409Z" fill="black"/>
<path d="M153.592 212.315C153.592 149.166 127.964 96.443 86.2435 47.8898H183.392V0.825942L34.3916 0.825928V45.5068C79.9856 97.0387 97.5675 139.038 97.5675 212.315H153.592Z" fill="black"/>
<path d="M346.409 212.315C346.409 149.166 372.038 96.443 413.758 47.8898H316.609L316.61 0.825928L465.609 0.82594V45.5068C420.015 97.0387 402.433 139.038 402.433 212.315H346.409Z" fill="black"/>
</svg>
