<svg width="500" height="500" viewBox="0 0 500 500" fill="none" xmlns="http://www.w3.org/2000/svg">
<g clip-path="url(#clip0_1260_184)">
<path d="M423.547 87.9434C390.756 72.5881 356.067 61.6775 320.394 55.5C315.951 63.54 310.76 74.3538 307.18 82.9568C268.719 77.1687 230.611 77.1687 192.857 82.9568C189.279 74.3557 183.971 63.54 179.486 55.5C143.779 61.6803 109.06 72.6187 76.2538 88.0235C10.9725 186.757 -6.72475 283.036 2.12291 377.952C45.4217 410.313 87.3827 429.972 128.637 442.836C138.889 428.725 147.952 413.786 155.732 398.172C140.92 392.528 126.641 385.573 113.064 377.389C116.637 374.738 120.126 371.976 123.525 369.106C205.795 407.619 295.185 407.619 376.474 369.106C379.889 371.957 383.376 374.719 386.933 377.389C373.335 385.594 359.029 392.564 344.187 398.213C352.012 413.89 361.058 428.844 371.283 442.876C412.576 430.013 454.576 410.354 497.875 377.952C508.258 267.921 480.14 172.526 423.547 87.9434ZM166.941 319.58C142.244 319.58 121.99 296.504 121.99 268.404C121.99 240.304 141.812 217.189 166.941 217.189C192.072 217.189 212.324 240.263 211.892 268.404C211.932 296.504 192.072 319.58 166.941 319.58ZM333.056 319.58C308.359 319.58 288.107 296.504 288.107 268.404C288.107 240.304 307.928 217.189 333.056 217.189C358.187 217.189 378.439 240.263 378.008 268.404C378.008 296.504 358.187 319.58 333.056 319.58Z" fill="#5865F2"/>
</g>
<defs>
<clipPath id="clip0_1260_184">
<rect width="500" height="389" fill="white" transform="translate(0 55.5)"/>
</clipPath>
</defs>
</svg>
