<svg width="500" height="500" viewBox="0 0 500 500" fill="none" xmlns="http://www.w3.org/2000/svg">
<g clip-path="url(#clip0_1260_230)">
<path d="M37.8007 409.602L59.8511 447.711C64.433 455.735 71.0195 462.038 78.7514 466.623L157.503 330.231H0C0 339.113 2.29095 347.996 6.87285 356.019L37.8007 409.602Z" fill="#0066DA"/>
<path d="M250 169.769L171.249 33.377C163.517 37.9616 156.93 44.2654 152.348 52.2885L6.87285 304.442C2.37522 312.292 0.00598833 321.182 0 330.231H157.503L250 169.769Z" fill="#00AC47"/>
<path d="M421.248 466.623C428.98 462.038 435.567 455.735 440.149 447.711L449.312 431.952L493.127 356.019C497.709 347.996 500 339.113 500 330.231H342.485L376.002 396.135L421.248 466.623Z" fill="#EA4335"/>
<path d="M250 169.769L328.752 33.3769C321.02 28.7923 312.142 26.5 302.979 26.5H197.022C187.858 26.5 178.981 29.0788 171.249 33.3769L250 169.769Z" fill="#00832D"/>
<path d="M342.497 330.231H157.502L78.751 466.623C86.4829 471.208 95.3604 473.5 104.524 473.5H395.475C404.639 473.5 413.516 470.921 421.248 466.623L342.497 330.231Z" fill="#2684FC"/>
<path d="M420.389 178.365L347.652 52.2885C343.07 44.2654 336.483 37.9616 328.751 33.377L250 169.769L342.497 330.231H499.714C499.714 321.348 497.423 312.465 492.841 304.442L420.389 178.365Z" fill="#FFBA00"/>
</g>
<defs>
<clipPath id="clip0_1260_230">
<rect width="500" height="447" fill="white" transform="translate(0 26.5)"/>
</clipPath>
</defs>
</svg>
