<svg width="500" height="500" viewBox="0 0 500 500" fill="none" xmlns="http://www.w3.org/2000/svg">
<path fill-rule="evenodd" clip-rule="evenodd" d="M414.261 340.593C410.941 340.593 408.868 344.189 410.528 347.065L445.239 407.242C447.159 410.57 444.099 414.561 440.389 413.567L335.115 385.331C330.516 384.097 325.787 386.831 324.557 391.434L296.348 496.802C295.352 500.514 290.371 501.17 288.451 497.841L253.733 437.654C252.074 434.778 247.925 434.778 246.267 437.654L211.549 497.841C209.629 501.17 204.646 500.514 203.652 496.802L175.442 391.434C174.211 386.831 169.482 384.097 164.883 385.331L59.6087 413.567C55.8995 414.561 52.8389 410.57 54.7593 407.242L89.4705 347.065C91.1301 344.189 89.0567 340.593 85.7376 340.593H16.3191C12.4788 340.593 10.5556 335.947 13.2713 333.229L90.3391 256.094C93.7057 252.725 93.7057 247.263 90.3391 243.893L13.2713 166.757C10.5556 164.039 12.479 159.392 16.3194 159.392H85.7311C89.0481 159.392 91.1237 155.798 89.4641 152.921L54.7593 92.7589C52.8389 89.4304 55.8995 85.4396 59.6087 86.434L164.883 114.669C169.482 115.901 174.211 113.17 175.442 108.567L203.652 3.19889C204.646 -0.513836 209.629 -1.17027 211.549 2.15848L246.265 62.3448C247.925 65.2225 252.074 65.2225 253.733 62.3448L288.451 2.15848C290.369 -1.17027 295.352 -0.513836 296.346 3.19889L324.557 108.567C325.787 113.17 330.516 115.901 335.115 114.669L440.389 86.434C444.099 85.4396 447.159 89.4304 445.239 92.7589L410.534 152.921C408.874 155.798 410.95 159.392 414.267 159.392H483.681C487.522 159.392 489.444 164.039 486.729 166.757L409.661 243.893C406.295 247.263 406.295 252.725 409.661 256.094L486.729 333.229C489.444 335.947 487.522 340.593 483.681 340.593H414.261ZM387.765 175.209C390.884 172.087 387.86 166.847 383.601 167.991L289.854 193.133C285.255 194.364 280.528 191.633 279.295 187.03L254.162 93.1537C253.022 88.8911 246.976 88.8911 245.836 93.1537L220.703 187.03C219.47 191.633 214.744 194.364 210.144 193.133L116.401 167.991C112.14 166.847 109.118 172.087 112.237 175.209L180.862 243.893C184.229 247.263 184.229 252.727 180.862 256.097L112.22 324.796C109.101 327.918 112.125 333.155 116.384 332.014L210.144 306.868C214.744 305.634 219.47 308.367 220.703 312.969L245.836 406.847C246.976 411.11 253.022 411.11 254.162 406.847L279.295 312.969C280.528 308.367 285.255 305.634 289.854 306.868L383.616 332.014C387.877 333.158 390.899 327.918 387.78 324.796L319.14 256.097C315.772 252.727 315.772 247.263 319.14 243.893L387.765 175.209Z" fill="black"/>
</svg>
