<svg width="500" height="500" viewBox="0 0 500 500" fill="none" xmlns="http://www.w3.org/2000/svg">
<mask id="mask0_1261_222" style="mask-type:luminance" maskUnits="userSpaceOnUse" x="81" y="0" width="334" height="500">
<path d="M414.827 0H81V500H414.827V0Z" fill="white"/>
</mask>
<g mask="url(#mask0_1261_222)">
<path d="M164.457 500.001C210.525 500.001 247.914 462.668 247.914 416.668V333.334H164.457C118.389 333.334 81 370.668 81 416.668C81 462.668 118.389 500.001 164.457 500.001Z" fill="#0ACF83"/>
<path d="M81 249.999C81 203.999 118.389 166.666 164.457 166.666H247.914V333.332H164.457C118.389 333.332 81 295.999 81 249.999Z" fill="#A259FF"/>
<path d="M81 83.3331C81 37.3333 118.389 0 164.457 0H247.914V166.667H164.457C118.389 166.667 81 129.333 81 83.3331Z" fill="#F24E1E"/>
<path d="M247.914 0H331.371C377.439 0 414.828 37.3333 414.828 83.3331C414.828 129.333 377.439 166.667 331.371 166.667H247.914V0Z" fill="#FF7262"/>
<path d="M414.828 249.999C414.828 295.999 377.439 333.332 331.371 333.332C285.303 333.332 247.914 295.999 247.914 249.999C247.914 203.999 285.303 166.666 331.371 166.666C377.439 166.666 414.828 203.999 414.828 249.999Z" fill="#1ABCFE"/>
</g>
</svg>
