<svg width="500" height="500" viewBox="0 0 500 500" fill="none" xmlns="http://www.w3.org/2000/svg">
<g clip-path="url(#clip0_1260_189)">
<path d="M178.265 467.083C197.638 474.88 218.656 479.507 240.725 480.278C270.592 481.321 298.993 475.146 324.384 463.416C293.937 451.453 266.362 433.959 242.827 412.209C227.572 436.634 205.008 455.928 178.265 467.083Z" fill="#FF9100"/>
<path d="M242.824 412.217C189.102 362.532 156.512 290.619 159.266 211.743C159.356 209.182 159.491 206.622 159.65 204.063C149.838 201.519 139.777 200.055 129.646 199.696C115.249 199.187 100.86 200.917 86.9939 204.823C72.6523 229.944 63.9989 258.767 62.9206 289.641C60.1381 369.317 108.356 438.936 178.261 467.09C205.006 455.934 227.568 436.665 242.824 412.217Z" fill="#FFC400"/>
<path d="M242.825 412.214C255.315 392.226 262.887 368.792 263.769 343.545C266.088 277.132 221.442 220.002 159.651 204.061C159.492 206.62 159.357 209.18 159.267 211.741C156.513 290.617 189.103 362.529 242.825 412.214Z" fill="#FF9100"/>
<path d="M256.859 17.3817C221.667 45.5759 193.877 82.7517 177.062 125.578C167.437 150.108 161.387 176.457 159.622 204.078C221.413 220.019 266.06 277.149 263.741 343.561C262.859 368.808 255.264 392.219 242.796 412.231C266.329 434.003 293.905 451.475 324.352 463.437C385.467 435.187 428.827 374.398 431.338 302.498C432.965 255.913 415.067 214.394 389.776 179.349C363.067 142.285 256.859 17.3817 256.859 17.3817Z" fill="#DD2C00"/>
</g>
<defs>
<clipPath id="clip0_1260_189">
<rect width="500" height="500" fill="white"/>
</clipPath>
</defs>
</svg>
