<svg width="500" height="500" viewBox="0 0 500 500" fill="none" xmlns="http://www.w3.org/2000/svg">
<g clip-path="url(#clip0_1260_206)">
<g clip-path="url(#clip1_1260_206)">
<path d="M490.567 227.734L272.266 9.41405C266.227 3.38026 258.039 -0.0090332 249.502 -0.0090332C240.965 -0.0090332 232.778 3.38026 226.739 9.41405L181.406 54.7266L238.906 112.246C245.688 109.932 252.983 109.571 259.959 111.204C266.936 112.837 273.313 116.398 278.363 121.481C283.414 126.563 286.933 132.963 288.521 139.95C290.109 146.937 289.701 154.23 287.344 160.996L342.754 216.426C351.036 213.578 360.045 213.656 368.277 216.644C376.509 219.633 383.469 225.353 387.995 232.851C392.521 240.349 394.342 249.171 393.152 257.848C391.962 266.525 387.835 274.532 381.458 280.535C375.08 286.538 366.838 290.174 358.105 290.837C349.372 291.5 340.676 289.15 333.465 284.178C326.255 279.207 320.966 271.915 318.48 263.517C315.995 255.119 316.462 246.122 319.805 238.027L268.125 186.328V322.344C275.98 326.228 282.267 332.687 285.937 340.644C289.607 348.602 290.439 357.577 288.294 366.073C286.15 374.57 281.158 382.074 274.15 387.336C267.143 392.598 258.544 395.3 249.786 394.99C241.029 394.681 232.642 391.379 226.024 385.636C219.405 379.892 214.955 372.054 213.416 363.427C211.876 354.801 213.339 345.907 217.562 338.228C221.785 330.55 228.512 324.551 236.621 321.23V183.984C231.942 182.067 227.689 179.243 224.108 175.674C220.526 172.105 217.686 167.863 215.752 163.191C213.818 158.519 212.829 153.51 212.841 148.454C212.852 143.397 213.865 138.393 215.821 133.73L159.102 77.0312L9.43383 226.719C3.39406 232.759 0.000976562 240.951 0.000976562 249.492C0.000976562 258.034 3.39406 266.226 9.43383 272.266L227.735 490.566C233.775 496.606 241.966 499.999 250.508 499.999C259.05 499.999 267.242 496.606 273.281 490.566L490.567 273.281C496.608 267.238 500.001 259.043 500.001 250.498C500.001 241.953 496.608 233.758 490.567 227.715" fill="#DE4C36"/>
</g>
</g>
<defs>
<clipPath id="clip0_1260_206">
<rect width="500" height="500" fill="white"/>
</clipPath>
<clipPath id="clip1_1260_206">
<rect width="500" height="500" fill="white"/>
</clipPath>
</defs>
</svg>
