<svg width="500" height="500" viewBox="0 0 500 500" fill="none" xmlns="http://www.w3.org/2000/svg">
<g clip-path="url(#clip0_1260_221)">
<g clip-path="url(#clip1_1260_221)">
<path d="M491.562 199.687L490.937 197.812L422.968 20.4687C421.564 16.9989 419.103 14.0597 415.933 12.0682C412.764 10.0768 409.047 9.13447 405.312 9.37499C401.562 9.37499 397.968 10.9375 395 13.125C392.031 15.4687 389.843 18.75 388.906 22.5L342.968 163.125H157.031L111.093 22.5C110.168 18.822 108.093 15.5353 105.17 13.1184C102.248 10.7015 98.6297 9.28058 94.8433 9.06249C91.068 8.82401 87.3137 9.7831 84.1154 11.8031C80.917 13.8231 78.4378 16.801 77.0308 20.3125L9.06208 198.125L8.28083 199.844C-1.46038 225.426 -2.64483 253.477 4.90514 279.789C12.4551 306.101 28.3325 329.256 50.1558 345.781L50.4683 345.937L51.0933 346.406L154.687 424.062L205.937 462.813L237.187 486.562C240.838 489.301 245.279 490.781 249.843 490.781C254.407 490.781 258.848 489.301 262.5 486.562L293.75 462.813L345 424.062L449.218 345.937H449.531C471.495 329.452 487.494 306.261 495.105 279.874C502.717 253.487 501.528 225.339 491.718 199.687H491.562Z" fill="#E24329"/>
<path d="M491.562 199.687L490.937 197.812C457.756 204.665 426.493 218.749 399.375 239.063L250.156 352.188L345.313 424.063L449.531 345.938H449.844C471.727 329.39 487.632 306.171 495.158 279.788C502.684 253.405 501.422 225.29 491.562 199.687Z" fill="#FC6D26"/>
<path d="M154.688 424.062L205.938 462.812L237.188 486.562C240.839 489.301 245.28 490.781 249.844 490.781C254.408 490.781 258.849 489.301 262.5 486.562L293.75 462.812L345 424.062L249.687 352.188L154.844 424.062H154.688Z" fill="#FCA326"/>
<path d="M100.625 239.063C73.5035 218.787 42.2374 204.755 9.06208 197.969L8.28083 199.844C-1.46038 225.426 -2.64483 253.477 4.90514 279.789C12.4551 306.101 28.3325 329.256 50.1558 345.781L50.4683 345.937L51.0933 346.406L154.687 424.062L250 352.188L100.625 239.063Z" fill="#FC6D26"/>
</g>
</g>
<defs>
<clipPath id="clip0_1260_221">
<rect width="500" height="500" fill="white"/>
</clipPath>
<clipPath id="clip1_1260_221">
<rect width="500" height="500" fill="white"/>
</clipPath>
</defs>
</svg>
