<svg width="500" height="500" viewBox="0 0 500 500" fill="none" xmlns="http://www.w3.org/2000/svg">
<g clip-path="url(#clip0_1260_244)">
<path d="M0 0H500V500H0V0Z" fill="#F26625"/>
<path d="M233.328 283.328L146.672 121.672H186.672L236.672 223.344C236.672 225.016 238.344 226.672 240 228.344C241.656 230.016 241.672 231.672 243.328 235.016L245 236.687V238.359C246.672 241.687 246.672 243.359 248.328 246.687C250 248.359 250 251.687 251.656 253.359C253.328 248.359 256.656 245.031 258.328 238.359C260 233.359 263.328 228.359 266.656 223.359L316.656 121.687H353.328L266.672 285V388.328H233.344L233.328 283.328Z" fill="white"/>
</g>
<defs>
<clipPath id="clip0_1260_244">
<rect width="500" height="500" fill="white"/>
</clipPath>
</defs>
</svg>
