<svg width="500" height="500" viewBox="0 0 500 500" fill="none" xmlns="http://www.w3.org/2000/svg">
<g clip-path="url(#clip0_1260_250)">
<path d="M429.297 0C453.906 0 475 19.339 475 43.9522V455.345C475 479.958 455.664 499.297 431.055 499.297H70.7031C46.0938 499.297 25 479.958 25 455.345V45.7103C25 21.097 44.3359 0 68.9453 0H70.7031H429.297ZM429.297 24.6132H70.7031C58.3984 24.6132 49.6094 33.4037 49.6094 43.9522V455.345C49.6094 465.893 58.3984 474.684 68.9453 474.684H429.297C441.602 474.684 450.391 465.893 450.391 455.345V45.7103C450.391 33.4037 441.602 24.6132 429.297 24.6132ZM137.5 325.246L193.75 374.473L137.5 425.457V325.246ZM186.719 75.5978V216.245C213.086 209.212 246.484 200.422 281.641 200.422C311.523 200.422 330.859 212.729 341.406 221.519C362.5 244.374 362.5 270.745 362.5 274.262V425.457H313.281V276.02C311.523 263.713 306.25 249.648 281.641 249.648C230.664 249.648 174.414 274.262 172.656 276.02L137.5 291.842V75.5978H186.719ZM362.5 75.5978C358.984 103.727 348.438 130.098 325.586 156.47H274.609C293.945 130.098 306.25 103.727 313.281 75.5978H362.5Z" fill="#430098"/>
</g>
<defs>
<clipPath id="clip0_1260_250">
<rect width="450" height="500" fill="white" transform="translate(25)"/>
</clipPath>
</defs>
</svg>
