<svg width="500" height="500" viewBox="0 0 500 500" fill="none" xmlns="http://www.w3.org/2000/svg">
<g clip-path="url(#clip0_1261_271)">
<path d="M220.236 228.404L82.7022 112.062C77.0882 107.438 70.5297 104.1 63.4877 102.283C56.4458 100.466 49.0912 100.213 41.9411 101.542C34.791 102.872 28.0188 105.751 22.1006 109.979C16.1824 114.206 11.2617 119.678 7.6846 126.011C4.10746 132.344 1.96063 139.384 1.39499 146.635C0.829363 153.886 1.85867 161.174 4.41055 167.985C6.96243 174.796 10.975 180.965 16.1661 186.059C21.3572 191.153 27.601 195.048 34.4584 197.471H35.042L36.4037 197.86L209.537 250.583C210.78 251.063 212.095 251.326 213.427 251.362C216.1 251.306 218.684 250.392 220.796 248.754C222.909 247.116 224.439 244.841 225.159 242.267C225.878 239.692 225.751 236.954 224.794 234.457C223.837 231.961 222.103 229.839 219.847 228.404H220.236Z" fill="url(#paint0_linear_1261_271)"/>
<path d="M247.666 36.3812C247.718 29.8305 245.99 23.3887 242.668 17.7429C239.346 12.0971 234.554 7.45903 228.803 4.32354C223.052 1.18804 216.557 -0.327312 210.013 -0.0608704C203.468 0.205571 197.118 2.24381 191.641 5.83643L23.955 107.782C18.4273 111.578 13.7231 116.451 10.1243 122.109C6.5255 127.767 4.1063 134.094 3.01174 140.71C1.91719 147.326 2.16982 154.095 3.75449 160.611C5.33916 167.127 8.22323 173.256 12.2338 178.63C16.2443 184.004 21.2987 188.513 27.0939 191.886C32.8891 195.26 39.3058 197.428 45.9591 198.26C52.6124 199.093 59.3653 198.574 65.813 196.733C72.2607 194.892 78.2703 191.768 83.4815 187.549L233.854 64.9804L235.021 64.0076C242.997 57.0037 247.666 47.0816 247.666 36.3812Z" fill="url(#paint1_linear_1261_271)"/>
<path d="M491.607 255.837L237.16 10.7006C233.673 7.45584 229.581 4.92979 225.118 3.26664C220.655 1.60349 215.908 0.835814 211.148 1.00744C201.535 1.35405 192.453 5.50561 185.901 12.5488C179.349 19.592 175.863 28.9499 176.209 38.5639C176.381 43.3242 177.488 48.0042 179.468 52.3365C181.448 56.6688 184.262 60.5687 187.749 63.8134L188.138 64.3971L458.537 292.024C463.349 296.324 469.662 298.553 476.107 298.227C482.552 297.901 488.608 295.046 492.961 290.283C497.315 285.519 499.614 279.23 499.361 272.781C499.107 266.333 496.321 260.244 491.607 255.837Z" fill="url(#paint2_linear_1261_271)"/>
<path d="M499.001 273.541C499.037 269.004 497.815 264.547 495.469 260.664C493.123 256.781 489.745 253.626 485.713 251.548C481.68 249.471 477.15 248.554 472.627 248.899C468.104 249.244 463.766 250.837 460.094 253.502L152.54 404.085C146.423 407.18 141.011 411.504 136.642 416.787C132.273 422.07 129.041 428.198 127.15 434.787C125.259 441.377 124.748 448.286 125.65 455.082C126.552 461.878 128.847 468.415 132.391 474.283C135.936 480.151 140.654 485.224 146.249 489.185C151.845 493.145 158.198 495.907 164.91 497.299C171.623 498.69 178.55 498.68 185.258 497.27C191.967 495.861 198.312 493.081 203.897 489.105L488.69 293.58C495.304 288.91 499.195 281.517 499.195 273.541H499.001Z" fill="url(#paint3_linear_1261_271)"/>
<path d="M148.455 149.611H347.85V348.833H148.455V149.611Z" fill="black"/>
<path d="M170.241 311.479H244.941V323.93H170.241V311.479ZM167.129 200.973L172.576 195.72C173.743 197.471 175.494 198.444 177.634 198.638C179.579 198.638 181.135 197.082 181.135 194.163V174.708H189.695V194.163C189.889 197.471 188.722 200.778 186.582 203.113C184.493 205.149 181.717 206.329 178.801 206.42H178.023C174.132 206.42 170.241 204.669 167.518 201.556L167.129 200.973ZM193.585 174.514H218.485V181.907H201.95V186.576H216.734V193.191H201.95V198.249H218.68V205.448H193.391V174.514H193.585ZM230.546 182.101H221.403V174.514H248.638V182.101H239.3V205.642H230.741V182.101H230.546ZM170.825 217.899H185.415C186.951 217.765 188.498 217.937 189.967 218.404C191.436 218.872 192.798 219.626 193.974 220.623C195.336 221.984 195.92 223.93 195.92 225.681C195.92 228.794 193.974 231.518 191.056 232.685C194.947 233.463 197.476 236.576 197.281 240.467C197.281 245.914 193.002 249.222 185.609 249.222H170.825V218.093V217.899ZM187.36 227.627C187.36 225.681 185.998 224.903 183.47 224.903H179.19V230.35H183.275C185.998 230.35 187.36 229.377 187.36 227.627ZM184.442 236.381H179.19V242.218H184.637C187.166 242.218 188.527 241.051 188.527 239.3C188.527 237.549 187.555 236.576 185.026 236.381H184.442ZM217.707 249.222L211.482 239.883H208.564V249.222H200.005V218.093H213.816C215.625 217.911 217.452 218.092 219.189 218.627C220.926 219.161 222.539 220.038 223.932 221.206C225.647 222.985 226.621 225.35 226.655 227.821V228.599C226.85 232.685 224.321 236.576 220.236 238.132L226.461 247.276L238.716 217.704H247.081L260.309 249.027H250.972L248.832 243.385H236.771L234.631 249.222H217.707ZM242.996 227.821L239.3 236.77H246.303L242.802 228.016L242.996 227.821ZM213.038 225.681H208.564V233.074H213.233C215.956 233.074 217.902 231.712 217.902 229.377C217.902 226.848 215.956 225.486 213.038 225.486V225.681ZM261.671 217.899H270.036V249.027H261.671V217.899ZM273.343 217.899H281.513L292.602 234.63V217.899H301.161V249.027H293.574L281.902 231.907V249.027H273.343V217.899ZM302.523 244.553L307.386 238.716C310.157 241.099 313.655 242.47 317.307 242.607C319.641 242.607 321.003 241.829 321.003 240.467C321.003 239.494 320.42 238.716 318.28 238.132L317.502 237.743H316.918L315.556 237.354H314.973L313.611 236.965L312.444 236.576C307.386 235.02 303.884 232.879 303.884 227.627C303.884 221.79 308.553 217.704 315.945 217.704C320.614 217.51 325.088 219.066 328.784 221.79L324.505 227.627C322.014 225.806 319.029 224.788 315.945 224.708C313.805 224.708 312.833 225.486 312.833 226.654C312.833 227.821 313.416 228.405 315.362 228.988L316.334 229.183L316.918 229.377L318.28 229.767C325.283 231.323 329.757 233.658 329.757 239.494C329.757 245.525 325.088 249.222 318.085 249.222H317.113C312.249 249.611 307.386 248.055 303.495 245.331L302.523 244.553Z" fill="white"/>
</g>
<defs>
<linearGradient id="paint0_linear_1261_271" x1="5655.48" y1="6624.22" x2="20522.7" y2="13835.2" gradientUnits="userSpaceOnUse">
<stop offset="0.21" stop-color="#FE2857"/>
<stop offset="1" stop-color="#293896"/>
</linearGradient>
<linearGradient id="paint1_linear_1261_271" x1="566.588" y1="15322.5" x2="19615.1" y2="1224.92" gradientUnits="userSpaceOnUse">
<stop stop-color="#FE2857"/>
<stop offset="0.01" stop-color="#FE2857"/>
<stop offset="0.86" stop-color="#FF318C"/>
</linearGradient>
<linearGradient id="paint2_linear_1261_271" x1="2212.31" y1="4133.1" x2="28763.2" y2="28258.9" gradientUnits="userSpaceOnUse">
<stop offset="0.02" stop-color="#FF318C"/>
<stop offset="0.21" stop-color="#FE2857"/>
<stop offset="0.86" stop-color="#FDB60D"/>
</linearGradient>
<linearGradient id="paint3_linear_1261_271" x1="34194.6" y1="7160.17" x2="6813.74" y2="25999.1" gradientUnits="userSpaceOnUse">
<stop offset="0.01" stop-color="#FDB60D"/>
<stop offset="0.86" stop-color="#FCF84A"/>
</linearGradient>
<clipPath id="clip0_1261_271">
<rect width="498" height="500" fill="white" transform="translate(1)"/>
</clipPath>
</defs>
</svg>
