<svg width="500" height="500" viewBox="0 0 500 500" fill="none" xmlns="http://www.w3.org/2000/svg">
<path d="M250.772 400.825C228.904 400.292 210.862 390.669 199.342 370.581C187.534 349.816 188.048 328.558 200.638 308.306C230.611 260.108 260.975 212.176 291.154 164.121C297.326 154.292 303.354 144.32 309.813 134.676C318.388 121.486 331.787 112.156 347.157 108.672C362.526 105.188 378.652 107.826 392.101 116.025C420.511 133.486 430.015 169.805 412.323 198.428C376.158 257.18 339.478 315.645 302.284 373.823C290.825 391.818 273.442 400.497 250.772 400.825Z" fill="#FFCB00"/>
<path d="M62.9497 400.825C40.8761 400.292 22.9374 390.238 11.6434 370.232C-0.000262453 349.467 0.740326 328.168 13.3715 307.916C45.6145 256.319 78.0015 204.796 110.533 153.349C114.647 146.7 118.761 139.888 123.164 133.445C132.091 120.541 145.702 111.609 161.117 108.54C176.531 105.471 192.538 108.505 205.748 117.002C218.958 125.498 228.335 138.788 231.893 154.059C235.451 169.33 232.91 185.383 224.809 198.818C188.767 256.866 152.232 314.708 115.676 372.489C103.806 391.223 86.34 400.497 62.9497 400.825Z" fill="#FF3D57"/>
<path d="M439.807 283.171C473.071 283.335 500 309.701 499.938 342.039C499.938 374.869 472.29 401.338 438.716 400.928C405.143 400.518 378.687 374.438 378.729 341.957C378.77 309.004 405.801 282.965 439.807 283.171Z" fill="#00D647"/>
</svg>
