<svg width="500" height="500" viewBox="0 0 500 500" fill="none" xmlns="http://www.w3.org/2000/svg">
<g clip-path="url(#clip0_1261_126)">
<path d="M41.0468 21.526L317.387 1.13421C351.33 -1.77624 360.052 0.186445 381.394 15.6883L469.606 77.7816C484.157 88.4588 489 91.3711 489 102.998V443.533C489 464.875 481.242 477.498 454.091 479.429L133.189 498.839C112.812 499.804 103.108 496.894 92.4374 483.304L27.4798 398.907C15.8285 383.371 11 371.742 11 358.153V55.4588C11 38.0111 18.7582 23.457 41.0468 21.526Z" fill="white"/>
<path d="M317.387 1.13421L41.0468 21.526C18.7582 23.457 11 38.0111 11 55.4588V358.155C11 371.744 15.8267 383.371 27.4798 398.907L92.4374 483.304C103.108 496.894 112.812 499.804 133.189 498.839L454.091 479.429C481.225 477.498 489 464.875 489 443.533V102.998C489 91.97 484.638 88.7928 471.803 79.3786L469.591 77.7816L381.394 15.6883C360.052 0.186445 351.332 -1.77624 317.387 1.13421ZM140.447 97.4253C114.244 99.1883 108.301 99.5876 93.4195 87.4943L55.581 57.4215C51.7346 53.5297 53.6652 48.6715 63.3541 47.707L329.006 28.3133C351.314 26.3674 362.933 34.1342 371.657 40.9215L417.218 73.9066C419.165 74.8861 424.011 80.692 418.183 80.692L143.843 97.192L140.447 97.4253ZM109.899 440.623V151.533C109.899 138.908 113.777 133.088 125.397 132.106L440.49 113.675C451.178 112.711 456.007 119.496 456.007 132.106V419.265C456.007 431.89 454.057 442.567 436.612 443.533L135.086 460.998C117.641 461.963 109.899 456.158 109.899 440.623ZM407.548 167.033C409.478 175.767 407.548 184.5 398.807 185.498L384.275 188.375V401.815C371.657 408.601 360.037 412.477 350.33 412.477C334.817 412.477 330.937 407.619 319.317 393.082L224.281 243.681V388.226L254.343 395.028C254.343 395.028 254.343 412.494 230.09 412.494L163.219 416.369C161.271 412.477 163.219 402.78 169.997 400.851L187.457 396.009V204.894L163.221 202.931C161.271 194.2 166.115 181.589 179.7 180.608L251.449 175.785L350.331 327.116V193.235L325.128 190.339C323.181 179.644 330.937 171.877 340.626 170.929L407.546 167.035L407.548 167.033Z" fill="black"/>
</g>
<defs>
<clipPath id="clip0_1261_126">
<rect width="478" height="500" fill="white" transform="translate(11)"/>
</clipPath>
</defs>
</svg>
