<svg width="500" height="500" viewBox="0 0 500 500" fill="none" xmlns="http://www.w3.org/2000/svg">
<path fill-rule="evenodd" clip-rule="evenodd" d="M49 164.668V182.356C59.8267 182.358 70.5469 184.478 80.5473 188.591C90.5479 192.705 99.6331 198.734 107.283 206.332C114.933 213.93 120.998 222.949 125.132 232.874C129.266 242.798 131.387 253.431 131.374 264.17H147.86C147.865 242.504 156.546 221.728 171.993 206.408C187.439 191.087 208.388 182.478 230.234 182.474V164.787C219.407 164.784 208.687 162.664 198.686 158.551C188.686 154.437 179.601 148.41 171.95 140.81C164.3 133.212 158.235 124.195 154.102 114.271C149.968 104.346 147.847 93.7112 147.86 82.974H131.374C131.368 104.638 122.688 125.414 107.241 140.735C91.7942 156.055 70.8452 164.664 49 164.668ZM273.055 52.2964H131.374V0H273.055C372.568 0 451 77.8046 451 173.218C451 268.631 372.568 346.416 273.055 346.416H190.682V500H131.374V294.121H273.055C342.271 294.121 391.691 245.126 391.691 173.218C391.691 101.309 342.252 52.2964 273.055 52.2964Z" fill="black"/>
</svg>
