<svg width="500" height="500" viewBox="0 0 500 500" fill="none" xmlns="http://www.w3.org/2000/svg">
<g clip-path="url(#clip0_1260_269)">
<path d="M148.227 283.49V418.787L244.791 321.527V185.352L148.227 283.49ZM351.773 172.638V80.9021L255.209 174.829V453.125C255.209 456.001 252.874 458.331 249.997 458.331C247.122 458.33 244.791 456.001 244.791 453.125V336.31L146.719 435.095C145.233 436.592 142.988 437.046 141.037 436.243C139.086 435.439 137.814 433.537 137.814 431.427V281.354L137.839 280.847C137.954 279.667 138.471 278.557 139.31 277.704L242.612 172.711L148.227 80.9021V172.638C148.226 175.513 145.896 177.844 143.021 177.844C140.145 177.844 137.816 175.513 137.814 172.638V68.573L137.869 67.7979C138.136 66.0231 139.307 64.4882 140.994 63.7756C142.923 62.9613 145.152 63.3787 146.652 64.8376L244.791 160.303V46.875C244.791 43.9995 247.122 41.6702 249.997 41.6687C252.874 41.6687 255.209 43.9985 255.209 46.875V160.297L353.348 64.8376C354.849 63.3788 357.078 62.9614 359.006 63.7756C360.934 64.5903 362.186 66.4797 362.186 68.573V172.638C362.184 175.513 359.855 177.844 356.979 177.844C354.104 177.844 351.775 175.513 351.773 172.638Z" fill="#20808D"/>
<path d="M401.666 167.429L402.197 167.453C404.824 167.719 406.872 169.938 406.872 172.635V327.042C406.872 329.918 404.542 332.248 401.666 332.248H356.982C354.106 332.248 351.77 329.918 351.77 327.042C351.77 324.166 354.105 321.836 356.982 321.836H396.459V177.842H103.54V321.836H143.023L143.554 321.86C146.18 322.127 148.229 324.346 148.229 327.042C148.229 329.738 146.18 331.957 143.554 332.224L143.023 332.248H98.3333C95.4569 332.248 93.1272 329.918 93.127 327.042V172.635L93.1514 172.104C93.4174 169.477 95.636 167.429 98.3333 167.429H401.666Z" fill="#20808D"/>
<path d="M246.343 168.925C248.265 167.033 251.288 166.935 253.32 168.619L253.71 168.979L360.693 277.701C361.65 278.675 362.187 279.986 362.188 281.351V431.424C362.188 433.533 360.915 435.436 358.966 436.24C357.015 437.044 354.77 436.595 353.283 435.099L246.301 327.347L253.698 320.005L351.77 418.784V283.487L246.289 176.291L245.935 175.889C244.283 173.83 244.423 170.816 246.343 168.925ZM246.331 319.98C248.373 317.955 251.672 317.964 253.698 320.005L246.301 327.347C244.275 325.306 244.29 322.007 246.331 319.98Z" fill="#20808D"/>
</g>
<defs>
<clipPath id="clip0_1260_269">
<rect width="500" height="500" fill="white"/>
</clipPath>
</defs>
</svg>
