<svg width="500" height="500" viewBox="0 0 500 500" fill="none" xmlns="http://www.w3.org/2000/svg">
<g clip-path="url(#clip0_1261_102)">
<path d="M170.555 276.945C154.447 281.516 143.88 289.531 136.918 297.54C143.586 291.705 152.517 286.35 164.565 282.935C176.887 279.443 187.4 279.468 196.086 281.144V274.351C188.676 273.674 180.181 274.214 170.555 276.945ZM136.182 219.845L76.3614 235.605C76.3614 235.605 77.4517 237.145 79.4704 239.2L130.191 225.835C130.191 225.835 129.472 235.096 123.23 243.381C135.037 234.449 136.182 219.845 136.182 219.845ZM186.256 360.434C102.072 383.107 57.5335 285.548 44.049 234.91C37.819 211.536 35.0994 193.834 34.3745 182.41C34.2967 181.224 34.3327 180.224 34.4165 179.308C30.0495 179.571 27.9588 181.841 28.3842 188.401C29.109 199.819 31.8287 217.52 38.0587 240.901C51.5372 291.531 96.0819 389.091 180.266 366.418C198.59 361.481 212.356 352.49 222.69 341.013C213.165 349.615 201.243 356.39 186.256 360.434ZM202.076 160.138V166.129H235.096C234.418 164.008 233.736 162.096 233.058 160.138H202.076Z" fill="#2D4552"/>
<path d="M242.477 209.48C257.327 213.697 265.181 224.109 269.332 233.322L285.889 238.025C285.889 238.025 283.631 205.779 254.463 197.494C227.177 189.741 210.386 212.655 208.343 215.62C216.281 209.965 227.872 205.335 242.477 209.48ZM374.278 233.471C346.967 225.684 330.182 248.645 328.169 251.569C336.113 245.92 347.698 241.289 362.297 245.452C377.123 249.676 384.971 260.075 389.134 269.295L405.716 274.015C405.716 274.015 403.421 241.762 374.278 233.471ZM357.828 318.494L220.091 279.987C220.091 279.987 221.582 287.547 227.303 297.336L343.272 329.756C352.819 324.232 357.828 318.494 357.828 318.494ZM262.334 401.377C153.273 372.137 166.458 233.179 184.106 167.331C191.372 140.195 198.842 120.025 205.037 106.505C201.341 105.744 198.279 107.691 195.254 113.843C188.677 127.184 180.266 148.905 172.126 179.312C154.483 245.159 141.298 384.112 250.354 413.352C301.758 427.124 341.803 406.194 371.654 373.324C343.319 398.987 307.143 413.376 262.334 401.377Z" fill="#2D4552"/>
<path d="M202.077 327.87V299.829L124.166 321.921C124.166 321.921 129.923 288.471 170.556 276.945C182.878 273.452 193.392 273.476 202.077 275.154V160.137H241.087C236.839 147.012 232.731 136.907 229.279 129.886C223.571 118.265 217.718 125.969 204.432 137.081C195.074 144.899 171.424 161.576 135.836 171.166C100.246 180.762 71.4743 178.217 59.4696 176.139C42.4507 173.202 33.5489 169.465 34.3817 182.41C35.1064 193.827 37.8262 211.53 44.0562 234.91C57.5346 285.541 102.079 383.101 186.263 360.427C208.253 354.502 223.774 342.791 234.533 327.864H202.077V327.87ZM76.3566 235.605L136.183 219.845C136.183 219.845 134.439 242.86 112.011 248.772C89.5773 254.679 76.3566 235.605 76.3566 235.605Z" fill="#E2574C"/>
<path d="M427.233 161.467C411.682 164.194 374.373 167.59 328.265 155.231C282.145 142.88 251.545 121.278 239.422 111.124C222.235 96.7293 214.675 86.7253 207.235 101.857C200.658 115.204 192.247 136.925 184.105 167.333C166.464 233.179 153.279 372.132 262.334 401.372C371.367 430.587 429.413 303.65 447.055 237.798C455.197 207.396 458.767 184.375 459.749 169.531C460.869 152.716 449.319 157.597 427.233 161.467ZM208.122 215.945C208.122 215.945 225.308 189.215 254.457 197.5C283.624 205.785 285.883 238.031 285.883 238.031L208.122 215.945ZM279.275 335.891C228.004 320.873 220.097 279.988 220.097 279.988L357.828 318.495C357.828 318.489 330.027 350.723 279.275 335.891ZM327.972 251.869C327.972 251.869 345.134 225.158 374.278 233.466C403.42 241.764 405.715 274.01 405.715 274.01L327.972 251.869Z" fill="#2EAD33"/>
<path d="M174.851 307.55L124.166 321.915C124.166 321.915 129.672 290.55 167.009 278.12L138.309 170.412L135.829 171.166C100.24 180.764 71.4684 178.217 59.4637 176.139C42.4449 173.204 33.5432 169.465 34.3758 182.411C35.1007 193.829 37.8203 211.53 44.0503 234.911C57.5288 285.541 102.074 383.101 186.257 360.427L188.737 359.649L174.851 307.55ZM76.3567 235.606L136.183 219.845C136.183 219.845 134.439 242.86 112.012 248.772C89.5776 254.679 76.3567 235.606 76.3567 235.606Z" fill="#D65348"/>
<path d="M281.588 336.454L279.269 335.89C227.998 320.873 220.09 279.988 220.09 279.988L291.113 299.84L328.714 155.351L328.259 155.231C282.139 142.88 251.54 121.278 239.415 111.124C222.229 96.7293 214.669 86.7253 207.229 101.857C200.658 115.204 192.247 136.925 184.105 167.333C166.464 233.179 153.279 372.132 262.334 401.371L264.569 401.875L281.588 336.454ZM208.122 215.945C208.122 215.945 225.308 189.215 254.457 197.5C283.624 205.785 285.883 238.031 285.883 238.031L208.122 215.945Z" fill="#1D8D22"/>
<path d="M177.432 306.814L163.839 310.671C167.051 328.774 172.711 346.146 181.594 361.494C183.141 361.153 184.674 360.859 186.249 360.428C190.377 359.314 194.204 357.935 197.889 356.431C187.963 341.701 181.397 324.736 177.432 306.814ZM172.124 179.314C165.139 205.384 158.891 242.908 160.611 280.545C163.689 279.209 166.942 277.964 170.554 276.939L173.071 276.376C170.003 236.174 176.634 195.206 184.104 167.333C185.998 160.281 187.897 153.723 189.789 147.606C186.741 149.546 183.458 151.535 179.719 153.584C177.198 161.366 174.652 169.873 172.124 179.314Z" fill="#C04B41"/>
</g>
<defs>
<clipPath id="clip0_1261_102">
<rect width="500" height="500" fill="white"/>
</clipPath>
</defs>
</svg>
