<svg width="500" height="500" viewBox="0 0 500 500" fill="none" xmlns="http://www.w3.org/2000/svg">
<g clip-path="url(#clip0_1261_200)">
<path fill-rule="evenodd" clip-rule="evenodd" d="M110.109 455.478C223.975 532.555 378.765 502.733 455.841 388.867C532.92 275.002 503.099 120.212 389.234 43.1344C275.368 -33.9433 120.577 -4.12105 43.4993 109.744C-33.5787 223.609 -3.75631 378.4 110.109 455.478ZM143.133 457.512C247.293 510.8 379.42 460.778 438.253 345.788C497.084 230.795 460.339 94.3756 356.179 41.0865C252.022 -12.2023 119.892 37.8182 61.0601 152.81C2.22873 267.802 38.9737 404.221 143.133 457.512Z" fill="black"/>
<path fill-rule="evenodd" clip-rule="evenodd" d="M172.816 484.707C266.839 515.309 377.446 434.467 419.866 304.14C462.284 173.814 420.449 43.3552 326.427 12.7529C232.404 -17.8491 121.799 62.9934 79.3801 193.321C36.9618 323.647 78.7951 454.105 172.816 484.707ZM201.578 474.802C281.149 491.774 367.19 404.567 393.756 280.024C420.318 155.479 377.349 40.7572 297.777 23.7853C218.206 6.81334 132.166 94.0184 105.601 218.564C79.037 343.107 122.007 457.829 201.578 474.802Z" fill="black"/>
<path fill-rule="evenodd" clip-rule="evenodd" d="M223.392 495.34C286.304 502.055 349.088 397.124 363.626 260.966C378.166 124.808 338.952 8.98443 276.042 2.26702C213.131 -4.45047 150.346 100.482 135.807 236.64C121.269 372.797 160.482 488.623 223.392 495.34ZM252.831 453.897C298.359 453.178 333.821 361.01 332.035 248.036C330.252 135.061 291.895 44.0594 246.368 44.7787C200.838 45.4982 165.377 137.665 167.162 250.641C168.947 363.616 207.302 454.616 252.831 453.897Z" fill="black"/>
</g>
<defs>
<clipPath id="clip0_1261_200">
<rect width="500" height="500" fill="white"/>
</clipPath>
</defs>
</svg>
