<svg width="500" height="500" viewBox="0 0 500 500" fill="none" xmlns="http://www.w3.org/2000/svg">
<g clip-path="url(#clip0_1261_169)">
<path d="M275.48 476.257C262.882 493.561 237.072 493.561 224.474 476.257L119.582 332.173C107.103 315.032 114.75 290.707 134.792 283.789L239.683 247.579C246.353 245.277 253.601 245.277 260.271 247.579L365.163 283.789C385.204 290.707 392.85 315.032 380.372 332.174L275.48 476.257ZM249.977 450.034L347.64 315.88L249.977 282.165L152.314 315.88L249.977 450.034Z" fill="#E72564"/>
<path d="M493.979 280.475C506.543 297.804 498.567 322.351 478.215 328.985L308.772 384.219C288.613 390.79 267.842 376.001 267.455 354.802L265.431 243.855C265.303 236.8 267.542 229.906 271.793 224.275L338.643 135.706C351.417 118.783 376.914 119.028 389.36 136.193L493.979 280.475ZM461.158 296.627L363.749 162.287L301.505 244.752L303.39 348.054L461.158 296.627Z" fill="#E723A0"/>
<path d="M375.338 12.3226C395.703 5.72716 416.583 20.8976 416.603 42.3034L416.772 220.523C416.793 241.725 396.308 256.91 376.028 250.727L269.885 218.367C263.136 216.31 257.272 212.049 253.23 206.266L189.654 115.319C177.507 97.9413 185.618 73.7676 205.789 67.2345L375.338 12.3226ZM380.557 48.5281L222.692 99.656L281.887 184.336L380.714 214.466L380.557 48.5281Z" fill="#E520E9"/>
<path d="M124.786 12.3996C104.421 5.80419 83.5413 20.9747 83.521 42.3804L83.3516 220.6C83.3317 241.802 103.816 256.987 124.097 250.804L230.239 218.444C236.988 216.387 242.852 212.126 246.894 206.344L310.47 115.396C322.618 98.0183 314.506 73.8446 294.335 67.3116L124.786 12.3996ZM119.567 48.6047L277.432 99.7331L218.238 184.413L119.409 214.543L119.567 48.6047Z" fill="#E520E9"/>
<path d="M6.02301 280.444C-6.54261 297.774 1.43301 322.32 21.7849 328.954L191.229 384.187C211.388 390.759 232.159 375.969 232.546 354.771L234.57 243.823C234.699 236.769 232.459 229.875 228.208 224.244L161.358 135.675C148.585 118.753 123.087 118.997 110.641 136.162L6.02301 280.444ZM38.8435 296.596L136.252 162.256L198.496 244.722L196.611 348.023L38.8435 296.596Z" fill="#E723A0"/>
<path d="M352.968 369.813L380.368 332.175C382.849 328.768 384.534 325.077 385.484 321.295L330.694 339.155L296.795 385.72C300.701 385.991 304.749 385.531 308.774 384.219L352.968 369.813Z" fill="#7B1A51"/>
<path d="M265.539 249.4L266.239 287.781L302.526 300.308L301.825 261.926L265.539 249.4Z" fill="#7B1A51"/>
<path d="M416.726 173.93L389.363 136.193C386.898 132.792 383.92 130.057 380.631 127.986L380.686 185.641L414.524 232.308C415.972 228.696 416.775 224.728 416.771 220.522L416.726 173.93Z" fill="#7B1A51"/>
<path d="M311.782 231.14L275.062 219.945L298.189 189.306L334.908 200.5L311.782 231.14Z" fill="#7B1A51"/>
<path d="M250.092 201.773L272.085 170.31L250.092 138.848L228.098 170.31L250.092 201.773Z" fill="#7B1A51"/>
<path d="M195.178 73.0927C198.186 70.5619 201.745 68.5434 205.788 67.2338L249.942 52.9338L294.334 67.3109C298.318 68.6011 301.832 70.5799 304.812 73.0585L249.942 90.8293L195.178 73.0927Z" fill="#7B1A51"/>
<path d="M225.027 220.032L201.901 189.392L165.182 200.587L188.308 231.226L225.027 220.032Z" fill="#7B1A51"/>
<path d="M85.5287 232.21L119.437 185.446L119.492 127.881C116.155 129.96 113.136 132.721 110.641 136.162L83.3962 173.735L83.3516 220.598C83.348 224.736 84.1249 228.645 85.5287 232.21Z" fill="#7B1A51"/>
<path d="M234.463 249.38L198.177 261.906L197.477 300.287L233.763 287.761L234.463 249.38Z" fill="#7B1A51"/>
<path d="M203.134 385.693L169.208 339.09L114.449 321.241C115.398 325.041 117.087 328.751 119.579 332.174L146.933 369.748L191.227 384.187C195.227 385.491 199.25 385.954 203.134 385.693Z" fill="#7B1A51"/>
</g>
<defs>
<clipPath id="clip0_1261_169">
<rect width="500" height="500" fill="white"/>
</clipPath>
</defs>
</svg>
