<svg width="500" height="500" viewBox="0 0 500 500" fill="none" xmlns="http://www.w3.org/2000/svg">
<path d="M289.781 52.2596C285.622 45.3473 279.75 39.629 272.734 35.6594C265.718 31.6899 257.797 29.6039 249.739 29.6039C241.681 29.6039 233.759 31.6899 226.743 35.6594C219.728 39.629 213.855 45.3473 209.697 52.2596L143.828 165.239C246.222 216.434 313.847 318.149 321.513 432.504H275.265C267.613 334.485 208.74 247.843 120.503 204.737L59.5406 310.3C83.9193 321.249 105.158 338.16 121.303 359.479C137.449 380.798 147.983 405.84 151.937 432.302H45.7261C44.4662 432.213 43.2481 431.811 42.1819 431.133C41.1158 430.455 40.235 429.522 39.619 428.417C39.0031 427.313 38.6715 426.072 38.654 424.808C38.6366 423.543 38.9339 422.294 39.5191 421.173L68.9508 371.05C58.9798 362.718 47.5842 356.265 35.316 352.003L6.18513 402.128C3.15255 407.337 1.18384 413.098 0.393359 419.075C-0.397123 425.053 0.00638445 431.128 1.58044 436.948C3.1545 442.769 5.86772 448.218 9.56249 452.979C13.2573 457.74 17.8599 461.718 23.1031 464.683C30.0111 468.58 37.7973 470.65 45.7261 470.697H191.177C193.879 437.315 187.926 403.799 173.895 373.397C159.865 342.995 138.233 316.737 111.093 297.166L134.218 257.069C203.904 304.997 243.113 386.236 237.324 470.697H360.554C366.394 342.72 303.822 221.291 196.283 151.905L243.031 71.7075C244.073 69.9596 245.762 68.6945 247.73 68.1875C249.699 67.6805 251.788 67.9727 253.543 69.0005C258.847 71.907 456.654 417.566 460.359 421.576C461.012 422.747 461.344 424.071 461.322 425.413C461.3 426.755 460.925 428.067 460.234 429.216C459.543 430.366 458.561 431.313 457.387 431.96C456.214 432.608 454.89 432.934 453.55 432.904H405.902C406.502 445.669 406.502 458.4 405.902 471.1H453.752C459.828 471.139 465.851 469.971 471.474 467.664C477.096 465.356 482.206 461.954 486.507 457.656C490.808 453.358 494.215 448.248 496.531 442.622C498.847 436.996 500.026 430.966 500 424.881C500.005 416.844 497.862 408.953 493.793 402.026L289.781 52.2596Z" fill="#362D59"/>
</svg>
