<svg width="500" height="500" viewBox="0 0 500 500" fill="none" xmlns="http://www.w3.org/2000/svg">
<g clip-path="url(#clip0_1261_12)">
<g clip-path="url(#clip1_1261_12)">
<path fill-rule="evenodd" clip-rule="evenodd" d="M183.456 0C155.872 0.0203874 133.548 22.4057 133.568 49.9898C133.548 77.5739 155.892 99.9592 183.476 99.9796H233.384V50.0102C233.405 22.4261 211.06 0.0407747 183.456 0C183.476 0 183.476 0 183.456 0ZM183.456 133.333H50.4082C22.8242 133.354 0.479668 155.739 0.500056 183.323C0.459281 210.907 22.8038 233.293 50.3878 233.333H183.456C211.04 233.313 233.384 210.928 233.364 183.344C233.384 155.739 211.04 133.354 183.456 133.333Z" fill="#36C5F0"/>
<path fill-rule="evenodd" clip-rule="evenodd" d="M499.5 183.323C499.52 155.739 477.176 133.354 449.592 133.333C422.008 133.354 399.663 155.739 399.683 183.323V233.333H449.592C477.176 233.313 499.52 210.928 499.5 183.323ZM366.432 183.323V49.9898C366.452 22.4261 344.128 0.0407747 316.544 0C288.96 0.0203874 266.615 22.4057 266.636 49.9898V183.323C266.595 210.907 288.94 233.293 316.524 233.333C344.108 233.313 366.452 210.928 366.432 183.323Z" fill="#2EB67D"/>
<path fill-rule="evenodd" clip-rule="evenodd" d="M316.524 500C344.108 499.98 366.453 477.594 366.433 450.01C366.453 422.426 344.108 400.041 316.524 400.02H266.616V450.01C266.596 477.574 288.94 499.959 316.524 500ZM316.524 366.646H449.592C477.176 366.626 499.521 344.241 499.501 316.656C499.541 289.072 477.197 266.687 449.613 266.646H316.545C288.961 266.667 266.616 289.052 266.637 316.636C266.616 344.241 288.94 366.626 316.524 366.646Z" fill="#ECB22E"/>
<path fill-rule="evenodd" clip-rule="evenodd" d="M0.500014 316.656C0.479627 344.241 22.8241 366.626 50.4082 366.646C77.9922 366.626 100.337 344.241 100.316 316.656V266.667H50.4082C22.8241 266.687 0.479627 289.072 0.500014 316.656ZM133.568 316.656V449.99C133.527 477.574 155.872 499.959 183.456 500C211.04 499.98 233.384 477.594 233.364 450.01V316.697C233.405 289.113 211.06 266.728 183.476 266.687C155.872 266.687 133.548 289.072 133.568 316.656Z" fill="#E01E5A"/>
</g>
</g>
<defs>
<clipPath id="clip0_1261_12">
<rect width="500" height="500" fill="white"/>
</clipPath>
<clipPath id="clip1_1261_12">
<rect width="499" height="500" fill="white" transform="translate(0.5)"/>
</clipPath>
</defs>
</svg>
