<svg width="500" height="500" viewBox="0 0 500 500" fill="none" xmlns="http://www.w3.org/2000/svg">
<g clip-path="url(#clip0_1261_22)">
<g clip-path="url(#clip1_1261_22)">
<path d="M416.265 0H83.7352C37.637 0 0.276367 37.3606 0.276367 83.4589V415.989C0.276367 462.087 37.637 499.448 83.7352 499.448H416.265C462.363 499.448 499.724 462.087 499.724 415.989V83.4589C499.724 37.3606 462.363 0 416.265 0ZM408.934 382.294C408.934 396.856 397.133 408.657 382.57 408.657H117.43C102.868 408.657 91.0668 396.856 91.0668 382.294V117.154C91.0668 102.591 102.868 90.7904 117.43 90.7904H382.57C397.133 90.7904 408.934 102.591 408.934 117.154V382.294ZM197.022 317.515C188.636 317.515 181.907 310.736 181.907 302.35V196.495C181.907 188.109 188.636 181.28 197.022 181.28H303.028C311.364 181.28 318.143 188.059 318.143 196.495V302.3C318.143 310.686 311.364 317.465 303.028 317.465H197.022V317.515Z" fill="black"/>
</g>
</g>
<defs>
<clipPath id="clip0_1261_22">
<rect width="500" height="500" fill="white"/>
</clipPath>
<clipPath id="clip1_1261_22">
<rect width="500" height="500" fill="white"/>
</clipPath>
</defs>
</svg>
