<svg width="500" height="500" viewBox="0 0 500 500" fill="none" xmlns="http://www.w3.org/2000/svg">
<path d="M500 500H0V0H500V500ZM256.215 112.5C194.675 112.5 153.75 144.679 153.75 198.411C153.75 282.196 268.946 268.839 268.947 304.964C268.947 318.928 256.821 323.482 239.845 323.482C214.683 323.482 182.549 313.161 157.085 299.196V371.446C185.278 383.589 213.774 388.75 239.845 388.75C302.9 388.75 346.25 357.482 346.25 303.143C345.947 212.679 230.447 228.768 230.447 194.768C230.447 182.928 240.148 178.375 256.215 178.375C279.254 178.375 308.356 185.357 331.396 197.804V126.464C306.234 116.446 281.376 112.5 256.215 112.5Z" fill="#635BFF"/>
</svg>
