<svg width="500" height="500" viewBox="0 0 500 500" fill="none" xmlns="http://www.w3.org/2000/svg">
<g clip-path="url(#clip0_1261_66)">
<path d="M195.715 11.4762L254.298 104.214C263.703 119.119 253.012 138.536 235.393 138.536H211.429V277.381H176.786V1.04761C184.048 1.04761 191.31 4.5238 195.715 11.4762Z" fill="#8FBCFA"/>
<path d="M99.3097 104.226L157.893 11.4762C159.898 8.26881 162.689 5.62711 166.002 3.80191C169.315 1.97671 173.039 1.0286 176.822 1.04761V277.381C175.822 277.331 174.822 277.307 173.822 277.31C162.036 277.31 151.119 281.012 142.179 287.333V138.536H118.214C100.595 138.536 89.8811 119.119 99.2978 104.226H99.3097Z" fill="#468BFF"/>
<path d="M360.452 369.048H214.654C223.428 359.574 228.568 347.303 229.166 334.405H497.94C497.94 341.667 494.464 348.929 487.523 353.333L394.761 411.905C379.869 421.321 360.44 410.619 360.44 393L360.452 369.048Z" fill="#FDBB11"/>
<path d="M394.762 256.917L487.5 315.5C494.464 319.893 497.928 327.155 497.928 334.417H229.166C229.759 322.048 226.16 309.842 218.952 299.774H360.464V275.833C360.464 258.214 379.869 247.5 394.762 256.917Z" fill="#F6D785"/>
<path d="M98.0954 407.738L13.4883 492.357C16.1484 495.04 19.4493 496.999 23.0785 498.049C26.7076 499.099 30.5448 499.205 34.2264 498.357L141.238 474.19C158.417 470.321 164.584 449.024 152.131 436.571L135.191 419.631L198.953 355.869C205.212 349.607 208.728 341.116 208.728 332.262C208.728 323.408 205.212 314.917 198.953 308.655L198.072 307.762L98.0954 407.738Z" fill="#FF9A9D"/>
<path d="M86.226 370.655L149.976 306.893C153.077 303.792 156.758 301.332 160.81 299.654C164.861 297.975 169.204 297.112 173.589 297.112C177.974 297.112 182.317 297.975 186.368 299.654C190.42 301.332 194.101 303.792 197.202 306.893L198.083 307.774L98.1188 407.738L13.4998 492.357C10.817 489.697 8.85783 486.396 7.80783 482.767C6.75784 479.138 6.6518 475.301 7.49976 471.619L31.6545 364.607C35.5236 347.417 56.8331 341.262 69.2855 353.714L86.226 370.655Z" fill="#FE363B"/>
</g>
<defs>
<clipPath id="clip0_1261_66">
<rect width="500" height="500" fill="white"/>
</clipPath>
</defs>
</svg>
