<svg width="500" height="500" viewBox="0 0 500 500" fill="none" xmlns="http://www.w3.org/2000/svg">
<g clip-path="url(#clip0_1261_79)">
<g clip-path="url(#clip1_1261_79)">
<mask id="mask0_1261_79" style="mask-type:luminance" maskUnits="userSpaceOnUse" x="-111" y="-111" width="722" height="721">
<path d="M-110.042 -110.623H610.49V609.909H-110.042V-110.623Z" fill="white"/>
</mask>
<g mask="url(#mask0_1261_79)">
<path d="M250 499.047C387.546 499.047 499.047 387.546 499.047 250C499.047 112.455 387.546 0.953166 250 0.953166C112.455 0.953166 0.953125 112.455 0.953125 250C0.953125 387.546 112.455 499.047 250 499.047Z" fill="#1AB4D7"/>
<path d="M120.168 249.28L162.669 206.673C164.079 205.237 164.865 203.336 164.865 201.319C164.865 197.117 161.449 193.704 157.246 193.704C155.199 193.704 153.28 194.506 151.833 195.971C151.828 195.979 109.369 238.414 109.369 238.414L66.7153 195.907C65.2741 194.487 63.3643 193.704 61.3392 193.704C57.1417 193.704 53.7246 197.115 53.7246 201.313C53.7246 203.361 54.5422 205.283 56.0097 206.731L98.5057 249.221L56.0318 291.774C54.5389 293.244 53.7246 295.17 53.7246 297.228C53.7246 301.429 57.1417 304.838 61.3392 304.838C63.3676 304.838 65.2791 304.051 66.7153 302.614L109.303 260.084L151.728 302.459C153.233 304.014 155.174 304.843 157.246 304.843C161.444 304.843 164.861 301.429 164.861 297.228C164.861 295.2 164.075 293.295 162.646 291.859L120.168 249.28Z" fill="white"/>
<path d="M372.835 249.267C372.835 256.898 379.04 263.105 386.68 263.105C394.302 263.105 400.509 256.898 400.509 249.267C400.509 241.635 394.302 235.429 386.68 235.429C379.04 235.429 372.835 241.635 372.835 249.267Z" fill="white"/>
<path d="M346.589 249.274C346.589 227.177 364.565 209.197 386.665 209.197C408.754 209.197 426.734 227.177 426.734 249.274C426.734 271.367 408.754 289.338 386.665 289.338C364.565 289.338 346.589 271.367 346.589 249.274ZM330.824 249.274C330.824 280.06 355.874 305.107 386.665 305.107C417.455 305.107 442.518 280.06 442.518 249.274C442.518 218.484 417.455 193.431 386.665 193.431C355.874 193.431 330.824 218.484 330.824 249.274Z" fill="white"/>
<path d="M326.861 194.386L324.518 194.379C317.485 194.379 310.701 196.597 305.035 200.963C304.289 197.547 301.235 194.976 297.598 194.976C293.411 194.976 290.057 198.331 290.047 202.526C290.047 202.541 290.072 296.575 290.072 296.575C290.083 300.762 293.499 304.166 297.688 304.166C301.876 304.166 305.291 300.763 305.302 296.566C305.302 296.547 305.305 238.737 305.305 238.737C305.305 219.463 307.067 211.679 323.578 209.616C325.104 209.426 326.763 209.456 326.77 209.456C331.288 209.301 334.498 206.196 334.498 202C334.498 197.802 331.071 194.386 326.861 194.386Z" fill="white"/>
<path d="M180.64 240.081C180.64 239.873 180.656 239.656 180.666 239.441C185.087 221.964 200.916 209.031 219.766 209.031C238.845 209.031 254.818 222.282 259.013 240.081H180.64ZM274.607 238.643C271.326 223.106 262.82 210.345 249.867 202.149C230.934 190.128 205.932 190.793 187.644 203.798C172.726 214.411 164.115 231.771 164.115 249.654C164.115 254.138 164.656 258.664 165.781 263.119C171.414 285.277 190.463 302.051 213.173 304.831C219.913 305.647 226.473 305.257 233.265 303.498C239.102 302.078 244.75 299.71 249.954 296.375C255.356 292.903 259.869 288.324 264.239 282.843C264.327 282.742 264.416 282.653 264.504 282.547C267.537 278.785 266.975 273.436 263.642 270.882C260.83 268.727 256.111 267.854 252.397 272.61C251.599 273.747 250.709 274.917 249.728 276.087C246.775 279.35 243.112 282.511 238.722 284.963C233.136 287.947 226.77 289.653 220.003 289.691C197.853 289.444 186 273.983 181.784 262.947C181.048 260.886 180.48 258.749 180.084 256.547C180.032 256.136 179.994 255.738 179.979 255.372C184.559 255.372 259.465 255.359 259.465 255.359C270.362 255.131 276.227 247.439 274.607 238.643Z" fill="white"/>
</g>
</g>
</g>
<defs>
<clipPath id="clip0_1261_79">
<rect width="500" height="500" fill="white"/>
</clipPath>
<clipPath id="clip1_1261_79">
<rect width="500" height="500" fill="white"/>
</clipPath>
</defs>
</svg>
