<svg width="240" height="240" viewBox="0 0 240 240" fill="none" xmlns="http://www.w3.org/2000/svg">
    <path d="M115.795 14.7991C148.477 10.2061 164.818 7.9065 178.195 12.5125C189.962 16.5642 200.148 24.2394 207.286 34.4336C215.399 46.0227 217.694 62.3656 222.287 95.0463L225.204 115.798C229.796 148.479 232.096 164.821 227.49 178.198C223.439 189.964 215.761 200.142 205.568 207.28C193.979 215.395 177.638 217.697 144.957 222.29L124.204 225.206C91.5219 229.799 75.1805 232.091 61.8035 227.485C50.0374 223.433 39.8522 215.766 32.7144 205.571C24.5997 193.983 22.3058 177.64 17.7128 144.96L14.7963 124.207C10.2033 91.5261 7.90457 75.1842 12.5096 61.8076C16.5613 50.0407 24.2366 39.8553 34.4308 32.7173C46.0199 24.6029 62.3619 22.3088 95.0431 17.7157L115.795 14.7991ZM187.034 98.7436C183.806 99.1976 181.559 102.179 182.013 105.408L189.322 157.415L125.288 109.169C122.684 107.208 118.984 107.728 117.022 110.331C115.063 112.933 115.581 116.627 118.182 118.588L182.218 166.842L130.201 174.152C126.975 174.607 124.728 177.598 125.181 180.824C125.636 184.048 128.62 186.297 131.845 185.846L197.969 176.552C199.518 176.335 200.914 175.507 201.857 174.258C202.797 173.009 203.207 171.437 202.99 169.889L193.698 103.765C193.244 100.537 190.261 98.2905 187.034 98.7436Z" fill="#37322E"/>
</svg>


