<svg width="500" height="500" viewBox="0 0 500 500" fill="none" xmlns="http://www.w3.org/2000/svg">
<g clip-path="url(#clip0_1260_42)">
<g clip-path="url(#clip1_1260_42)">
<path fill-rule="evenodd" clip-rule="evenodd" d="M326.833 48.8125C316.767 39.0159 303.276 33.5343 289.229 33.5343C275.183 33.5343 261.691 39.0159 251.625 48.8125L51.0833 245.479C47.7275 248.741 43.232 250.566 38.5521 250.566C33.8722 250.566 29.3767 248.741 26.0208 245.479C24.3779 243.881 23.0719 241.97 22.1801 239.859C21.2883 237.748 20.8289 235.479 20.8289 233.187C20.8289 230.896 21.2883 228.627 22.1801 226.516C23.0719 224.405 24.3779 222.494 26.0208 220.896L226.563 24.2291C243.338 7.90399 265.822 -1.23047 289.229 -1.23047C312.637 -1.23047 335.121 7.90399 351.896 24.2291C361.602 33.6688 368.936 45.2728 373.295 58.0914C377.655 70.91 378.918 84.5789 376.979 97.9791C390.557 96.0479 404.398 97.2601 417.433 101.522C430.469 105.784 442.352 112.983 452.167 122.562L453.208 123.604C461.423 131.593 467.953 141.148 472.412 151.704C476.871 162.26 479.168 173.603 479.168 185.062C479.168 196.522 476.871 207.864 472.412 218.421C467.953 228.977 461.423 238.532 453.208 246.521L271.833 424.375C271.286 424.907 270.851 425.543 270.554 426.247C270.256 426.95 270.103 427.705 270.103 428.469C270.103 429.232 270.256 429.988 270.554 430.691C270.851 431.394 271.286 432.03 271.833 432.562L309.083 469.104C310.726 470.702 312.032 472.613 312.924 474.724C313.816 476.835 314.275 479.104 314.275 481.396C314.275 483.688 313.816 485.956 312.924 488.067C312.032 490.179 310.726 492.09 309.083 493.687C305.727 496.949 301.232 498.774 296.552 498.774C291.872 498.774 287.377 496.949 284.021 493.687L246.771 457.167C242.934 453.439 239.884 448.979 237.802 444.051C235.719 439.124 234.646 433.829 234.646 428.479C234.646 423.13 235.719 417.834 237.802 412.907C239.884 407.979 242.934 403.52 246.771 399.792L428.146 221.917C433.072 217.122 436.988 211.388 439.662 205.055C442.335 198.721 443.713 191.916 443.713 185.042C443.713 178.167 442.335 171.362 439.662 165.029C436.988 158.695 433.072 152.962 428.146 148.167L427.104 147.146C417.049 137.359 403.575 131.878 389.544 131.867C375.513 131.855 362.03 137.314 351.958 147.083L202.542 293.625L202.5 293.667L200.458 295.687C197.102 298.955 192.602 300.784 187.917 300.784C183.232 300.784 178.732 298.955 175.375 295.687C173.732 294.09 172.426 292.179 171.534 290.067C170.642 287.956 170.183 285.688 170.183 283.396C170.183 281.104 170.642 278.835 171.534 276.724C172.426 274.613 173.732 272.702 175.375 271.104L326.896 122.5C331.809 117.702 335.711 111.969 338.374 105.639C341.037 99.309 342.405 92.5102 342.399 85.643C342.394 78.7759 341.013 71.9794 338.34 65.654C335.667 59.3286 331.754 53.6023 326.833 48.8125Z" fill="black"/>
<path fill-rule="evenodd" clip-rule="evenodd" d="M301.771 97.9791C303.414 96.3813 304.72 94.4703 305.612 92.3591C306.503 90.2479 306.963 87.9793 306.963 85.6875C306.963 83.3956 306.503 81.1271 305.612 79.0159C304.72 76.9046 303.414 74.9936 301.771 73.3958C298.414 70.1278 293.914 68.2991 289.229 68.2991C284.544 68.2991 280.044 70.1278 276.688 73.3958L128.375 218.854C120.16 226.843 113.63 236.398 109.171 246.954C104.712 257.51 102.415 268.853 102.415 280.312C102.415 291.772 104.712 303.114 109.171 313.671C113.63 324.227 120.16 333.782 128.375 341.771C145.153 358.091 167.636 367.222 191.042 367.222C214.448 367.222 236.931 358.091 253.708 341.771L402.042 196.312C403.685 194.715 404.991 192.804 405.882 190.692C406.774 188.581 407.234 186.313 407.234 184.021C407.234 181.729 406.774 179.46 405.882 177.349C404.991 175.238 403.685 173.327 402.042 171.729C398.685 168.461 394.185 166.632 389.5 166.632C384.815 166.632 380.315 168.461 376.958 171.729L228.646 317.187C218.58 326.984 205.088 332.466 191.042 332.466C176.995 332.466 163.504 326.984 153.438 317.187C148.511 312.393 144.595 306.659 141.922 300.326C139.248 293.992 137.871 287.187 137.871 280.312C137.871 273.438 139.248 266.633 141.922 260.299C144.595 253.966 148.511 248.232 153.438 243.437L301.771 97.9791Z" fill="black"/>
</g>
</g>
<defs>
<clipPath id="clip0_1260_42">
<rect width="500" height="500" fill="white"/>
</clipPath>
<clipPath id="clip1_1260_42">
<rect width="500" height="500" fill="white"/>
</clipPath>
</defs>
</svg>
