<svg width="52" height="52" viewBox="0 0 52 52" fill="none" xmlns="http://www.w3.org/2000/svg">
<path d="M25.0367 1.89915C32.5235 0.846939 36.2671 0.321173 39.3315 1.37628C42.0269 2.30439 44.3594 4.06213 45.9946 6.39724C47.8536 9.05216 48.38 12.7963 49.4323 20.2834L50.1003 25.0365C51.1525 32.5236 51.6783 36.2669 50.6231 39.3314C49.695 42.027 47.9377 44.3602 45.6023 45.9954C42.9474 47.8543 39.2037 48.3798 31.717 49.432L26.9639 50.1C19.4767 51.1523 15.7327 51.6792 12.6682 50.624C9.97259 49.6958 7.64021 47.9374 6.005 45.6021C4.14612 42.9472 3.61963 39.2038 2.56741 31.7168L1.89941 26.9637C0.847162 19.4766 0.321217 15.7324 1.3764 12.6679C2.30459 9.97252 4.06219 7.64001 6.39737 6.00487C9.05229 4.14587 12.7964 3.6194 20.2836 2.56715L25.0367 1.89915ZM36.8386 21.1293C36.0992 21.2333 35.5845 21.9174 35.6884 22.6568L37.363 34.5719L22.6935 23.5177C22.0971 23.0683 21.2493 23.1875 20.8 23.7838C20.3507 24.3801 20.4698 25.228 21.0661 25.6773L35.7356 36.7316L23.8204 38.4061C23.0811 38.51 22.5662 39.1932 22.6701 39.9326C22.774 40.6719 23.4572 41.1868 24.1967 41.0829L39.3437 38.9542C39.6987 38.9043 40.0195 38.7157 40.2354 38.4294C40.4511 38.143 40.5449 37.7826 40.495 37.4275L38.3662 22.2805C38.2623 21.5411 37.5779 21.0254 36.8386 21.1293Z" fill="#FFFFFF"/>
</svg>
